<svg xmlns="http://www.w3.org/2000/svg" xmlns:xlink="http://www.w3.org/1999/xlink" id="Capa_1" x="0px" y="0px" viewBox="0 0 477.013 477.013" style="enable-background:new 0 0 477.013 477.013;" xml:space="preserve" width="512" height="512"><g>	<path d="M151.613,364.888c-13.226-6.376-25.29-14.921-35.692-25.282c-3.266-3.156-8.473-3.067-11.629,0.199   c-3.089,3.197-3.079,8.27,0.024,11.454c11.7,11.657,25.273,21.27,40.152,28.439c4.129,1.892,9.01,0.078,10.902-4.051   c1.838-4.013,0.182-8.761-3.754-10.759H151.613z"></path>	<path d="M290.923,164.335c-12.45,10.019-21.356,23.77-25.407,39.229c-1.138,4.397,1.503,8.884,5.9,10.023   c0.001,0,0.001,0,0.002,0.001c0.675,0.172,1.368,0.26,2.064,0.261c3.749-0.002,7.022-2.538,7.959-6.168   c3.155-12.029,10.087-22.728,19.777-30.523c3.543-2.843,4.11-8.02,1.267-11.563c-2.843-3.543-8.02-4.11-11.563-1.266l0,0   L290.923,164.335z"></path>	<path d="M93.546,164.335c-12.453,10.017-21.359,23.768-25.407,39.229c-1.136,4.398,1.509,8.883,5.906,10.019c0,0,0,0,0,0   c0.672,0.172,1.362,0.26,2.056,0.261c3.749-0.002,7.022-2.538,7.959-6.168c3.153-12.029,10.085-22.727,19.777-30.519   c3.543-2.843,4.11-8.02,1.266-11.563c-2.843-3.543-8.02-4.11-11.563-1.266l0,0L93.546,164.335z"></path>	<path d="M172.735,98.446c0.672,0.172,1.362,0.26,2.056,0.261c3.749-0.002,7.022-2.538,7.959-6.168   c3.153-12.029,10.085-22.727,19.777-30.519c3.543-2.843,4.11-8.02,1.266-11.563c-2.843-3.543-8.02-4.11-11.563-1.267   c-12.453,10.019-21.358,23.773-25.402,39.236C165.692,92.825,168.337,97.31,172.735,98.446   C172.734,98.446,172.734,98.446,172.735,98.446z"></path>	<circle cx="328.967" cy="156.275" r="8.224"></circle>	<circle cx="131.59" cy="156.275" r="8.224"></circle>	<circle cx="230.279" cy="41.139" r="8.224"></circle>	<circle cx="90.47" cy="320.756" r="8.224"></circle>	<path d="M451.2,86.094c4.682-2.175,8.93-5.182,12.537-8.875c17.67-17.652,17.685-46.286,0.033-63.956   c-15.236-15.252-39.12-17.628-57.063-5.678c-6.886,4.519-12.353,10.892-15.773,18.384c-7.737,16.544-17.824,31.883-29.949,45.541   l-17.235,17.234C333.736,30.586,278.472-8.443,220.314,1.57c-51.285,8.83-88.751,53.321-88.723,105.361   c0,2.85,0.128,5.712,0.377,8.621c-55.795,4.136-98.979,50.567-99.066,106.515c0,2.726,0.113,5.462,0.341,8.24   c-17.479,0.151-31.917,13.691-33.189,31.125c-0.515,9.025,2.738,17.859,8.982,24.395c6.221,6.534,14.844,10.239,23.865,10.256   h2.013c16.398,57.639,60.311,103.395,117.227,122.148c-3.587,1.554-7.377,2.589-11.255,3.073l-18.794,2.349   c-22.749,2.873-39.817,22.207-39.847,45.136c0,4.542,3.682,8.224,8.224,8.224h296.066c4.542,0,8.224-3.682,8.224-8.224   c-0.03-22.929-17.098-42.263-39.847-45.136l-18.79-2.349c-3.879-0.485-7.668-1.519-11.255-3.073   c56.915-18.753,100.827-64.509,117.224-122.148h2.013c18.179-0.005,32.912-14.745,32.908-32.924   c-0.001-2.149-0.212-4.293-0.63-6.401c-3.25-15.421-16.855-26.46-32.615-26.463c0.225-2.775,0.337-5.505,0.337-8.224   c-0.047-37.813-20.074-72.786-52.663-91.965l13.739-13.739C418.609,103.635,434.191,93.385,451.2,86.094z M238.503,16.467   c49.939,0.057,90.408,40.526,90.464,90.464c-0.019,2.895-0.183,5.787-0.493,8.666c-39.852,3.294-74.548,28.521-89.971,65.415   c-15.423-36.894-50.119-62.12-89.971-65.415c-0.31-2.878-0.475-5.771-0.493-8.666C148.095,56.992,188.564,16.523,238.503,16.467z    M32.902,279.636c-9.084,0-16.448-7.363-16.449-16.448c0-0.299,0.008-0.598,0.024-0.896c0.972-9.041,8.733-15.814,17.822-15.552   h8.259c4.542,0,8.224-3.681,8.225-8.223c0-0.456-0.038-0.912-0.113-1.362c-8.506-49.233,24.509-96.039,73.742-104.546   s96.039,24.509,104.546,73.742c1.761,10.193,1.761,20.612,0,30.804c-0.752,4.479,2.27,8.72,6.75,9.472   c0.45,0.076,0.906,0.113,1.362,0.113h8.742c8.057-0.176,15.149,5.282,17.042,13.115c1.829,8.911-3.912,17.616-12.823,19.445   c-1.087,0.223-2.194,0.336-3.303,0.336h-41.12c-4.542,0-8.224,3.682-8.224,8.224v24.672c-0.008,9.1-7.392,16.47-16.492,16.462   c-1.106-0.001-2.21-0.113-3.294-0.336c-7.831-1.895-13.287-8.986-13.111-17.042c-0.021-17.654-14.327-31.96-31.981-31.981H32.902z    M303.794,407.026c-4.431,1-7.212,5.402-6.212,9.833c0.398,1.765,1.368,3.349,2.758,4.507l4.03,3.361   c8.464,7.054,18.776,11.529,29.71,12.892l18.793,2.35c11.453,1.448,20.967,9.528,24.251,20.595H99.883   c3.285-11.066,12.799-19.144,24.251-20.592l18.793-2.35c10.938-1.359,21.253-5.836,29.716-12.898l4.03-3.357   c3.489-2.908,3.961-8.093,1.053-11.583c-1.158-1.39-2.742-2.359-4.507-2.757c-57.292-12.717-103.469-54.994-121.179-110.944h80.466   c8.575,0.01,15.523,6.958,15.533,15.533c-0.26,15.971,10.833,29.886,26.459,33.193c2.105,0.405,4.244,0.61,6.388,0.61   c18.158,0.036,32.908-14.655,32.945-32.813c0-0.025,0-0.05,0-0.075v-16.448h211.136   C407.258,352.032,361.083,394.308,303.794,407.026z M427.656,222.068c-0.017,5.057-0.459,10.104-1.321,15.087   c-0.752,4.479,2.27,8.72,6.75,9.472c0.45,0.076,0.906,0.113,1.362,0.113h8.742c8.058-0.179,15.151,5.28,17.042,13.115   c1.829,8.911-3.912,17.616-12.823,19.445c-1.087,0.223-2.194,0.336-3.303,0.336H275.037c4.05-6.895,5.46-15.025,3.968-22.881   c-3.256-15.417-16.858-26.452-32.615-26.459c0.225-2.775,0.337-5.505,0.337-8.224c0-49.962,40.502-90.464,90.464-90.464   s90.464,40.502,90.464,90.464L427.656,222.068z M375.803,122.483c-9.852-3.831-20.221-6.167-30.764-6.93   c0.146-1.708,0.164-3.378,0.221-5.06l27.354-27.354c13.508-15.032,24.717-31.981,33.262-50.296   c2.177-4.747,5.656-8.778,10.033-11.626c13.265-8.756,31.116-5.101,39.872,8.163c7.554,11.444,5.985,26.629-3.751,36.286   c-2.236,2.296-4.872,4.166-7.778,5.518c-18.759,8.086-35.927,19.448-50.702,33.554L375.803,122.483z"></path></g></svg>