<svg xmlns="http://www.w3.org/2000/svg" clip-rule="evenodd" fill-rule="evenodd" stroke-linejoin="round" stroke-miterlimit="2" viewBox="0 0 510 510"><path d="m70.683 418.794h68.206c4.418 0 8 3.582 8 8v63.659c0 6.91-5.637 12.547-12.547 12.547h-59.112c-6.91 0-12.547-5.636-12.547-12.547v-63.659c0-4.418 3.582-8 8-8zm14.684 16c-4.065 0-6.684 0-6.684 0v52.206h52.206v-52.206s-2.619 0-6.684 0v19.828c0 4.418-3.582 8-8 8h-22.838c-4.418 0-8-3.582-8-8zm22.838 0h-6.838v11.828h6.838zm53.174-16h68.206c4.418 0 8 3.582 8 8v63.659c0 6.91-5.637 12.547-12.547 12.547h-59.113c-6.91 0-12.546-5.636-12.546-12.547v-63.659c0-4.418 3.582-8 8-8zm14.684 16c-4.065 0-6.684 0-6.684 0v52.206h52.206v-52.206s-2.619 0-6.684 0v19.828c0 4.418-3.582 8-8 8h-22.838c-4.418 0-8-3.582-8-8zm22.838 0h-6.838v11.828h6.838zm-37.522-104.014h68.206c4.418 0 8 3.581 8 8v63.659c0 6.91-5.637 12.547-12.547 12.547h-59.113c-6.91 0-12.546-5.637-12.546-12.547v-63.659c0-4.419 3.582-8 8-8zm14.684 15.999c-4.065 0-6.684 0-6.684.001v52.206h52.206v-52.207s-2.619 0-6.684 0v19.828c0 4.418-3.582 8-8 8h-22.838c-4.418 0-8-3.582-8-8zm22.838 0h-6.838v11.828h6.838zm53.174 72.015h68.206c4.418 0 8 3.582 8 8v63.659c0 6.91-5.637 12.547-12.547 12.547h-59.113c-6.91 0-12.546-5.636-12.546-12.547v-63.659c0-4.418 3.581-8 8-8zm14.684 16c-4.065 0-6.684 0-6.684 0v52.206h52.206v-52.206s-2.619 0-6.685 0v19.828c0 4.418-3.581 8-8 8h-22.837c-4.419 0-8-3.582-8-8zm22.837 0h-6.837v11.828s6.838 0 6.837 0zm-37.521-104.014h68.206c4.418 0 8 3.581 8 8v63.659c0 6.91-5.637 12.547-12.547 12.547h-59.113c-6.91 0-12.546-5.637-12.546-12.547v-63.659c0-4.419 3.581-8 8-8zm14.684 15.999c-4.065 0-6.684 0-6.684.001v52.206h52.206v-52.207s-2.619 0-6.685 0v19.828c0 4.418-3.581 8-8 8h-22.837c-4.419 0-8-3.582-8-8zm22.837 0h-6.837v11.828s6.838 0 6.837 0zm-218.913-15.999h68.206c4.418 0 8 3.581 8 8v63.659c0 6.91-5.637 12.547-12.547 12.547h-59.112c-6.91 0-12.547-5.637-12.547-12.547v-63.659c0-4.419 3.582-8 8-8zm14.684 15.999c-4.065 0-6.684 0-6.684.001v52.206h52.206v-52.207s-2.619 0-6.684 0v19.828c0 4.418-3.582 8-8 8h-22.838c-4.418 0-8-3.582-8-8zm22.838 0h-6.838v11.828h6.838zm-37.522-104.014h68.206c4.418 0 8 3.582 8 8v63.659c0 6.911-5.637 12.547-12.547 12.547h-59.112c-6.91 0-12.547-5.636-12.547-12.547v-63.659c0-4.418 3.582-8 8-8zm14.684 16c-4.065 0-6.684 0-6.684 0v52.206h52.206v-52.206s-2.619 0-6.684 0v19.828c0 4.418-3.582 8-8 8h-22.838c-4.418 0-8-3.582-8-8zm22.838 0h-6.838v11.828h6.838zm196.327-22.271h-254.097v258.506c0 4.418-3.581 8-7.999 8h-27.436c-4.418 0-8-3.582-8-8v-287.996c0-3.281 2.002-6.228 5.052-7.437l180.481-71.555c1.894-.75 4.003-.75 5.897 0l75.729 30.024c-.257-2.912-.393-6.015-.393-9.345 0-51.335 41.616-92.952 92.952-92.952 51.335 0 92.952 41.617 92.952 92.952 0 20.704-5.272 32.637-11.909 44.378-8.648 15.299-19.997 30.211-22.325 69.967-.001.014-.001.028-.002.042l-.013 13.298c0 9.179-5.733 17.067-13.779 20.274v7.341c0 9.317-5.931 17.307-14.177 20.418v7.197c0 9.04-5.602 16.868-13.501 20.155v143.239c0 4.418-3.582 8-8 8h-27.435c-4.418 0-8-3.582-8-8v-150.057c-2.874-3.699-4.587-8.335-4.587-13.337v-7.201c-8.25-3.114-14.149-11.101-14.149-20.414v-7.333c-8.071-3.203-13.807-11.098-13.807-20.282v-13.572c-.614-10.293-1.833-18.916-3.454-26.31zm-26.47-59.699-82.58-32.74-172.482 68.383v274.562h11.436v-258.506c0-4.418 3.581-7.999 8-7.999h257.396c-4.333-11.469-9.618-19.394-14.158-27.426-2.909-5.147-5.556-10.331-7.612-16.274zm131.365 93.773h-85.441v5.808c0 3.197 2.61 5.807 5.807 5.807h73.849c3.181 0 5.779-2.615 5.779-5.811zm-13.785 27.615h-57.849v5.808c0 3.197 2.611 5.807 5.808 5.807h46.234c3.185 0 5.807-2.61 5.807-5.807zm-14.177 27.615h-29.523v5.808c0 1.701.765 3.234 1.947 4.301 1.028.927 2.381 1.506 3.861 1.506h17.936c.039 0 .077 0 .116-.001 3.128-.063 5.663-2.664 5.663-5.806zm-13.501 27.615h-10.214c-.41 0-.817-.011-1.221-.034v133.621h11.435zm-224.154-174.14h103.344c4.418 0 8 3.582 8 8v20.358c0 4.419-3.582 8-8 8h-103.344c-4.418 0-8-3.581-8-8v-20.358c0-4.418 3.582-8 8-8zm8 16v4.359h87.344v-4.359zm237.569 59.295h20.645c2.872-31.605 11.26-47.732 19.141-61.331 7.392-12.752 14.505-22.878 14.505-44.546 0-42.499-34.453-76.952-76.952-76.952s-76.952 34.453-76.952 76.952c0 21.668 7.113 31.794 14.505 44.546 7.881 13.599 16.268 29.726 19.141 61.331h20.644v-77.521h-11.757c-15.245 0-27.73-12.484-27.73-27.729 0-15.282 12.488-27.758 27.73-27.758 15.278 0 27.757 12.479 27.757 27.758v11.729h13.323v-11.729c0-15.279 12.479-27.758 27.758-27.758 15.242 0 27.729 12.476 27.729 27.758 0 15.245-12.484 27.729-27.729 27.729h-11.758zm-29.323 0h13.323v-77.521h-13.323zm-16-93.521v-11.729c0-6.472-5.286-11.758-11.757-11.758-6.452 0-11.73 5.289-11.73 11.758 0 6.448 5.281 11.729 11.73 11.729zm45.323 0h11.758c6.449 0 11.729-5.281 11.729-11.729 0-6.469-5.277-11.758-11.729-11.758-6.472 0-11.758 5.286-11.758 11.758zm-14.661-126.033c0 4.415-3.585 8-8 8s-8-3.585-8-8v-20.014c0-4.415 3.585-8 8-8s8 3.585 8 8zm-65.153 13.172c2.205 3.825.889 8.721-2.937 10.926-3.825 2.205-8.721.889-10.926-2.936l-9.992-17.338c-2.205-3.826-.889-8.721 2.936-10.926 3.826-2.205 8.721-.889 10.926 2.936zm-49.817 43.986c3.823 2.209 5.133 7.107 2.923 10.929-2.209 3.823-7.107 5.133-10.929 2.923l-17.338-10.021c-3.823-2.209-5.133-7.107-2.923-10.93 2.209-3.822 7.107-5.132 10.93-2.922zm177.952-35.988c-2.21 3.823-7.107 5.133-10.93 2.923-3.823-2.209-5.132-7.107-2.923-10.93l10.021-17.337c2.21-3.823 7.107-5.133 10.93-2.923 3.823 2.209 5.132 7.107 2.923 10.929zm43.999 49.837c-3.821 2.213-8.719.906-10.932-2.915-2.212-3.821-.906-8.719 2.915-10.931l17.31-10.022c3.821-2.212 8.719-.906 10.931 2.916 2.213 3.821.906 8.719-2.915 10.931z"></path></svg>