<svg xmlns="http://www.w3.org/2000/svg" clip-rule="evenodd" fill-rule="evenodd" stroke-linejoin="round" stroke-miterlimit="2" viewBox="0 0 510 510"><path d="m117.756 452.988 5.508 9.733c.004.007.008.013.012.02 5.072 9.023 1.855 20.536-7.116 25.602l-20.578 11.663c-.008.005-.016.01-.024.014-9.023 5.073-20.536 1.855-25.605-7.12l-60.511-106.922c-5.119-9.031-1.901-20.556 7.081-25.629l20.602-11.663.007-.004c8.978-5.071 20.495-1.884 25.608 7.094l.011.018 4.403 7.781 53.269-30.841c16.381-9.474 33.128-15.608 51.119-9.766 17.304 5.611 45.551 17.709 74.38 22.919.353.064.701.151 1.042.262 14.928 4.833 23.988 19.934 19.912 35.092-.476 1.773-1.069 3.451-1.774 5.027 2.562-.846 5.08-1.981 7.562-3.428l73.373-42.733c26.867-15.651 44.791-13.843 54.93-7.041 8.813 5.913 12.911 16.001 12.647 25.912-.266 10.019-5.061 19.579-12.918 24.418l-133.138 81.971c-14.177 8.75-29.706 10.806-45.794 6.515l-.008-.003-93.378-25.025zm-8.426 17.597-60.495-106.895c-.768-1.344-2.489-1.837-3.834-1.077l-20.595 11.659-.007.004c-1.335.754-1.798 2.47-1.038 3.812l.003.005 60.514 106.926.003.006c.758 1.343 2.483 1.806 3.832 1.05l20.558-11.651.01-.006c1.342-.758 1.806-2.484 1.049-3.833zm.545-31.522 13.373-7.722c1.837-1.061 4.021-1.349 6.071-.8l96.572 25.882c11.683 3.116 22.968 1.683 33.264-4.671l.007-.005 133.144-81.975c3.531-2.175 5.194-6.717 5.314-11.219.347-13.058-12.756-22.547-43.529-4.62l-73.371 42.731c-11.912 6.943-24.397 8.867-38.004 6.701-.009-.002-9.464-1.547-9.467-1.548-16.572-3.402-31.942-8.407-48.997-12.99-4.264-1.146-6.796-5.539-5.65-9.803s5.538-6.795 9.802-5.649c16.62 4.466 31.602 9.365 47.735 12.701 7.774.85 13.496-2.321 15.285-8.985l.001-.004c1.808-6.724-2.419-13.225-8.938-15.563-29.423-5.409-58.219-17.61-75.882-23.337l-.003-.001c-13.511-4.388-25.868 1.284-38.168 8.398l-53.399 30.916zm-68.146-64.477c4.67-.695 9.007 2.529 9.702 7.2.667 4.67-2.558 9.035-7.228 9.702-4.67.695-9.007-2.558-9.702-7.228-.667-4.671 2.558-9.007 7.228-9.674zm280.998-240.118c37.317 17.119 63.343 54.857 63.343 98.477 0 59.63-48.637 108.267-108.266 108.267-59.63 0-108.267-48.637-108.267-108.267 0-43.614 26.019-81.347 63.327-98.47 0-7.263 0-19.463 0-19.463h-24.206c-5.173 0-9.597-2.831-11.775-7.496-2.244-4.763-1.484-10.023 1.853-13.944 23.042-27.123 46.083-54.278 69.113-81.387 2.596-3.09 6.015-4.617 9.946-4.617 4.03 0 7.444 1.572 9.969 4.644 23.022 27.099 46.043 54.23 69.064 81.329 3.391 3.923 4.112 9.155 1.948 13.899-.008.016-.015.032-.023.048-2.167 4.668-6.569 7.524-11.82 7.524h-24.206zm-73.863-5.851c9.218-2.566 18.923-3.938 28.94-3.938 10.01 0 19.71 1.37 28.923 3.933v-21.6c0-4.418 3.581-8 8-8h25.756c-20.896-24.6-41.792-49.223-62.688-73.822-20.895 24.599-41.791 49.222-62.686 73.822h25.755c4.419 0 8 3.582 8 8zm28.94 196.595c50.817 0 92.266-41.449 92.266-92.267 0-50.817-41.449-92.266-92.266-92.266-50.818 0-92.267 41.449-92.267 92.266 0 50.818 41.449 92.267 92.267 92.267zm-8-148.729v-6.966c0-4.416 3.584-8 8-8 4.415 0 8 3.584 8 8v6.867c11.996 2.164 23.244 9.512 28.914 23.024 1.708 4.071-.21 8.764-4.281 10.472-4.072 1.709-8.764-.209-10.473-4.281-5.683-13.544-20.835-16.37-31.731-12.083-6.491 2.553-11.618 7.839-11.24 15.456l.001.02c.284 6.025 4.119 9.522 8.774 11.796 4.133 2.018 8.911 3.158 13.422 3.893l.014.002c17.13 2.821 36.074 10.415 38.524 30.779 2.459 20.305-14.642 31.608-31.924 34.185v6.76c0 4.416-3.585 8-8 8-4.416 0-8-3.584-8-8v-6.875c-14.918-2.525-28.003-11.953-31.913-27.662-1.067-4.285 1.546-8.629 5.831-9.696 4.284-1.066 8.629 1.547 9.695 5.831 2.844 11.428 14.318 16.482 25.495 16.205h.017c5.916-.134 12.493-1.631 17.344-4.976 3.727-2.57 6.227-6.433 5.571-11.85l-.001-.008c-.807-6.714-5.307-10.461-10.619-12.874-4.572-2.077-9.76-3.231-14.606-4.029-16.699-2.72-34.67-10.925-35.606-30.725-.739-15.041 8.543-26.078 21.363-31.121 2.376-.935 4.869-1.653 7.429-2.144zm174.515-86.486.006.007c18.587 21.88 37.175 43.785 55.762 65.665 3.135 3.632 3.806 8.473 1.803 12.863-.007.017-.015.033-.022.049-2.007 4.321-6.082 6.968-10.943 6.968h-18.01v97.528c0 8.875-7.224 16.099-16.099 16.099h-43.428c-8.868 0-16.125-7.231-16.125-16.099v-97.528h-18.01c-4.79 0-8.886-2.621-10.904-6.94-2.076-4.411-1.372-9.281 1.718-12.911 18.611-21.908 37.222-43.842 55.834-65.75 2.401-2.844 5.558-4.251 9.188-4.251 3.727 0 6.883 1.456 9.23 4.3zm-56.53 69.552h17.474c4.418 0 8 3.581 8 8v105.528c0 .062.063.099.125.099h43.428c.055 0 .099-.044.099-.099v-105.528c0-4.419 3.582-8 8-8h17.475c-15.767-18.564-31.534-37.142-47.301-55.704-15.767 18.562-31.533 37.14-47.3 55.704zm-260.933-69.552.006.007c18.587 21.88 37.174 43.785 55.762 65.665 3.135 3.632 3.806 8.473 1.803 12.863-.008.017-.015.033-.023.049-2.006 4.321-6.081 6.968-10.942 6.968h-18.01v97.528c0 8.875-7.224 16.099-16.099 16.099h-43.428c-8.868 0-16.125-7.231-16.125-16.099v-97.528h-18.011c-4.789 0-8.885-2.621-10.903-6.94-2.077-4.411-1.372-9.281 1.717-12.911 18.612-21.908 37.223-43.842 55.834-65.75 2.401-2.844 5.559-4.251 9.189-4.251 3.727 0 6.883 1.456 9.23 4.3zm-56.53 69.552h17.474c4.418 0 8 3.581 8 8v105.528c0 .062.063.099.125.099h43.428c.055 0 .099-.044.099-.099v-105.528c0-4.419 3.582-8 8-8h17.474c-15.766-18.564-31.533-37.142-47.3-55.704-15.767 18.562-31.534 37.14-47.3 55.704z"></path></svg>